<?xml version="1.0" encoding="utf-8"?>
<!-- Generator: Adobe Illustrator 16.2.0, SVG Export Plug-In . SVG Version: 6.00 Build 0)  -->
<!DOCTYPE svg PUBLIC "-//W3C//DTD SVG 1.1//EN" "http://www.w3.org/Graphics/SVG/1.1/DTD/svg11.dtd">
<svg version="1.1" id="Layer_1" xmlns="http://www.w3.org/2000/svg" xmlns:xlink="http://www.w3.org/1999/xlink" x="0px" y="0px"
	 width="650px" height="402px" viewBox="0 0 650 402" enable-background="new 0 0 650 402" xml:space="preserve">
<path fill="#268FE0" d="M26.131,466.153c0,0,0.132-1.068,0.76-1.068s0.663,1.068,0.663,1.068v20.831l20.963-52.469
	c0,0-4.368-5.957-11.297-3.917l-10.643,25.563l-9.505-25.348c-7.691-2.516-11.677,3.347-11.677,3.347l20.737,52.784V466.153z
	 M24.477,461.002c0-1.179,0.954-2.138,2.133-2.138c1.181,0,2.137,0.959,2.137,2.138c0,1.181-0.957,2.137-2.137,2.137
	C25.431,463.139,24.477,462.183,24.477,461.002z M57.212,488.204c-1.247,0-2.283,0.861-2.57,2.019H33.866
	c3.127-1.386,5.217-3.563,6.497-5.339h2.063v-5.4h-0.295h-5.104v5.4h1.73c-1.761,2.169-4.751,4.682-9.413,5.3v-1.924h-5.202v1.797
	c-3.595-0.624-6.223-2.287-8.047-3.978c-0.401-0.371-0.812-0.825-1.144-1.195h1.778v-5.4h-0.293h-5.105v5.4h1.947
	c1.355,1.715,3.614,3.93,6.923,5.339H0.223c-0.287-1.157-1.324-2.019-2.569-2.019c-1.466,0-2.654,1.19-2.654,2.655
	c0,1.466,1.188,2.654,2.654,2.654c1.245,0,2.281-0.859,2.568-2.016h23.92v1.963h5.202v-1.963h25.299
	c0.287,1.156,1.323,2.016,2.569,2.016c1.466,0,2.651-1.188,2.651-2.654C59.864,489.395,58.678,488.204,57.212,488.204z
	 M37.615,484.296v-4.224h4.222v4.224H37.615z M11.919,484.296v-4.224h4.222v4.224H11.919z"/>
<g>
	<g>
		<g>
			<text transform="matrix(1 0 0 1 70.333 436.624)" fill="#003375" font-family="'ArialMT'" font-size="11">This vector Illustration was created by </text>
		</g>
	</g>
	<g>
		<g>
			<text transform="matrix(1 0 0 1 257.4082 436.624)" fill="#003375" font-family="'ArialMT'" font-size="11">DownloadFree</text>
		</g>
	</g>
	<polyline fill="#003375" points="257.408,438.183 257.408,437.377 328.944,437.377 328.944,438.183 257.408,438.183 	"/>
	<g>
		<g>
			<text transform="matrix(1 0 0 1 328.9443 436.624)" fill="#003375" font-family="'ArialMT'" font-size="11">V</text>
		</g>
	</g>
	<polyline fill="#003375" points="328.944,438.183 328.944,437.377 335.675,437.377 335.675,438.183 328.944,438.183 	"/>
	<g>
		<g>
			<text transform="matrix(1 0 0 1 335.6748 436.624)" fill="#003375" font-family="'ArialMT'" font-size="11">ecto</text>
		</g>
	</g>
	<polyline fill="#003375" points="335.675,438.183 335.675,437.377 356.466,437.377 356.466,438.183 335.675,438.183 	"/>
	<g>
		<g>
			<text transform="matrix(1 0 0 1 356.4658 436.624)" fill="#003375" font-family="'ArialMT'" font-size="11">r</text>
		</g>
	</g>
	<polyline fill="#003375" points="356.466,438.183 356.466,437.377 359.522,437.377 359.522,438.183 356.466,438.183 	"/>
	<g>
		<g>
			<text transform="matrix(1 0 0 1 359.5225 436.624)" fill="#003375" font-family="'ArialMT'" font-size="11">.com</text>
		</g>
	</g>
	<polyline fill="#003375" points="359.522,438.183 359.522,437.377 383.358,437.377 383.358,438.183 359.522,438.183 	"/>
	<g>
		<g>
			<text transform="matrix(1 0 0 1 383.3584 436.624)" fill="#003375" font-family="'ArialMT'" font-size="11"> and it</text>
		</g>
	</g>
	<g>
		<g>
			<text transform="matrix(1 0 0 1 413.3223 436.624)" fill="#003375" font-family="'ArialMT'" font-size="11">’</text>
		</g>
	</g>
	<g>
		<g>
			<text transform="matrix(1 0 0 1 415.5674 436.624)" fill="#003375" font-family="'ArialMT'" font-size="11">s</text>
		</g>
	</g>
	<g>
		<g>
			<text transform="matrix(1 0 0 1 424.1289 436.6045)" fill="#003375" font-family="'Arial-BoldMT'" font-size="11">100% royalty free</text>
		</g>
	</g>
	<g>
		<g>
			<text transform="matrix(1 0 0 1 514.624 436.624)" fill="#003375" font-family="'ArialMT'" font-size="11"> for </text>
		</g>
	</g>
	<g>
		<g>
			<text transform="matrix(1 0 0 1 533.5713 436.6045)" fill="#003375" font-family="'Arial-BoldMT'" font-size="11">commercial purposes</text>
		</g>
	</g>
	<g>
		<g>
			<text transform="matrix(1 0 0 1 647.2852 436.624)" fill="#003375" font-family="'ArialMT'" font-size="11">.</text>
		</g>
	</g>
	<g>
		<g>
			<text transform="matrix(1 0 0 1 70.333 450.624)" fill="#003375" font-family="'ArialMT'" font-size="11">Y</text>
		</g>
	</g>
	<g>
		<g>
			<g>
				<text transform="matrix(1 0 0 1 76.6602 450.624)" fill="#003375" font-family="'ArialMT'" font-size="11">ou can share it on your site with two backlinks - </text>
			</g>
		</g>
		<g>
			<g>
				<text transform="matrix(1 0 0 1 309.5991 450.624)" fill="#003375" font-family="'ArialMT'" font-size="11">to</text>
			</g>
		</g>
	</g>
	<g>
		<g>
			<text transform="matrix(1 0 0 1 321.8291 450.624)" fill="#003375" font-family="'ArialMT'" font-size="11">DownloadFree</text>
		</g>
	</g>
	<polyline fill="#003375" points="321.829,452.183 321.829,451.377 393.362,451.377 393.362,452.183 321.829,452.183 	"/>
	<g>
		<g>
			<text transform="matrix(1 0 0 1 393.3623 450.624)" fill="#003375" font-family="'ArialMT'" font-size="11">V</text>
		</g>
	</g>
	<polyline fill="#003375" points="393.362,452.183 393.362,451.377 400.093,451.377 400.093,452.183 393.362,452.183 	"/>
	<g>
		<g>
			<text transform="matrix(1 0 0 1 400.0928 450.624)" fill="#003375" font-family="'ArialMT'" font-size="11">ecto</text>
		</g>
	</g>
	<polyline fill="#003375" points="400.093,452.183 400.093,451.377 420.884,451.377 420.884,452.183 400.093,452.183 	"/>
	<g>
		<g>
			<text transform="matrix(1 0 0 1 420.8838 450.624)" fill="#003375" font-family="'ArialMT'" font-size="11">r</text>
		</g>
	</g>
	<polyline fill="#003375" points="420.884,452.183 420.884,451.377 423.94,451.377 423.94,452.183 420.884,452.183 	"/>
	<g>
		<g>
			<text transform="matrix(1 0 0 1 423.9404 450.624)" fill="#003375" font-family="'ArialMT'" font-size="11">.com</text>
		</g>
	</g>
	<polyline fill="#003375" points="423.94,452.183 423.94,451.377 447.776,451.377 447.776,452.183 423.94,452.183 	"/>
	<g>
		<g>
			<text transform="matrix(1 0 0 1 447.7764 450.624)" fill="#003375" font-family="'ArialMT'" font-size="11"> and to homepage of this vector freebie</text>
		</g>
	</g>
	<g>
		<g>
			<g>
				<text transform="matrix(1 0 0 1 70.333 464.624)" fill="#003375" font-family="'ArialMT'" font-size="11">(use post title as a text for link). In my work I</text>
			</g>
		</g>
		<g>
			<g>
				<text transform="matrix(1 0 0 1 284.9028 464.624)" fill="#003375" font-family="'ArialMT'" font-size="11">’</text>
			</g>
		</g>
		<g>
			<g>
				<text transform="matrix(1 0 0 1 287.3467 464.624)" fill="#003375" font-family="'ArialMT'" font-size="11">m using free vector silhouettes and Illustrations </text>
			</g>
		</g>
	</g>
	<g>
		<g>
			<text transform="matrix(1 0 0 1 70.333 478.624)" fill="#003375" font-family="'ArialMT'" font-size="11">from</text>
		</g>
	</g>
	<g>
		<g>
			<text transform="matrix(1 0 0 1 95.3892 478.624)" fill="#003375" font-family="'ArialMT'" font-size="11">all-silhouettes.com</text>
		</g>
	</g>
	<polyline fill="#003375" points="95.389,480.183 95.389,479.377 186.483,479.377 186.483,480.183 95.389,480.183 	"/>
	<g>
		<g>
			<text transform="matrix(1 0 0 1 186.4829 478.624)" fill="#003375" font-family="'ArialMT'" font-size="11"> and </text>
		</g>
	</g>
	<g>
		<g>
			<text transform="matrix(1 0 0 1 210.9482 478.624)" fill="#003375" font-family="'ArialMT'" font-size="11">vectorlad</text>
		</g>
	</g>
	<polyline fill="#003375" points="210.948,480.183 210.948,479.377 255.582,479.377 255.582,480.183 210.948,480.183 	"/>
	<g>
		<g>
			<text transform="matrix(1 0 0 1 255.582 478.624)" fill="#003375" font-family="'ArialMT'" font-size="11">y</text>
		</g>
	</g>
	<polyline fill="#003375" points="255.582,480.183 255.582,479.377 260.266,479.377 260.266,480.183 255.582,480.183 	"/>
	<g>
		<g>
			<text transform="matrix(1 0 0 1 260.2656 478.624)" fill="#003375" font-family="'ArialMT'" font-size="11">.com</text>
		</g>
	</g>
	<polyline fill="#003375" points="260.266,480.183 260.266,479.377 284.103,479.377 284.103,480.183 260.266,480.183 	"/>
	<g>
		<g>
			<text transform="matrix(1 0 0 1 284.1006 478.624)" fill="#003375" font-family="'ArialMT'" font-size="11"> (useful resources of free vector illustrations).</text>
		</g>
	</g>
	<g>
		<g>
			<text transform="matrix(1 0 0 1 70.333 492.624)" fill="#FF0000" font-family="'ArialMT'" font-size="11">Y</text>
		</g>
	</g>
	<g>
		<g>
			<g>
				<text transform="matrix(1 0 0 1 76.6602 492.624)" fill="#FF0000" font-family="'ArialMT'" font-size="11">ou are not allowed to share it without backlinks a</text>
			</g>
		</g>
		<g>
			<g>
				<text transform="matrix(1 0 0 1 313.2944 492.624)" fill="#FF0000" font-family="'ArialMT'" font-size="11">nd sell it on stock sites as your own </text>
			</g>
		</g>
	</g>
	<g>
		<g>
			<text transform="matrix(1 0 0 1 488.7588 492.624)" fill="#7A00FF" font-family="'ArialMT'" font-size="11">(take care about your karma).</text>
		</g>
	</g>
</g>
<polygon fill-rule="evenodd" clip-rule="evenodd" points="434.699,375.417 434.699,375.406 205.457,375.406 205.457,375.417 
	0,375.417 0,402 650,402 650,375.417 "/>
<g>
	<path d="M143.065,35.671c-3.53-5.412-10.184-7.991-16.028-10.044C118,22.452,108.399,20.81,98.94,19.502
		c-15.686-2.168-32.672-4.09-48.291-0.575C42.659,20.726,33.813,24,28.015,30.012c-6.393,6.628-0.969,13.397,5.226,17.506
		c9.904,6.57,22.537,8.985,34.137,10.272c12.925,1.435,25.921,1.507,38.911,1.473c15.618-0.041,56.683-8.957,38.315-31.984
		c-0.582-0.729-4.229,0.578-3.641,1.315c16.434,20.603-17.312,29.051-32.169,29.092c-13.398,0.037-26.826-0.013-40.146-1.623
		c-12.492-1.51-26.49-4.544-36.117-13.183c-9.154-8.214,1.284-16.251,8.958-19.685c8.699-3.892,18.003-4.639,27.386-4.409
		c18.649,0.458,38.267,2.46,55.949,8.672c5.197,1.826,11.249,4.45,14.377,9.245C139.826,37.663,143.375,36.146,143.065,35.671
		L143.065,35.671z"/>
</g>
<g>
	<path d="M131.58,100.56c-4.283-7.071-12.854-10.247-20.512-12.084c-9.612-2.306-19.49-3.025-29.346-3.281
		c-13.383-0.348-27.014-0.312-40.286,1.55c-7.108,0.998-25.571,4.733-17.301,15.506c4.986,6.495,13.671,9.412,21.29,11.272
		c10.54,2.575,21.675,2.793,32.468,2.557c17.665-0.386,35.774-1.988,52.668-7.432c5.474-1.764,13.236-4.023,16.613-9.118
		c3.99-6.02-6.231-9.511-10.152-10.791c-1.746-0.57-4.548,1.943-2.202,2.709c2.816,0.919,7.823,2.121,9.159,5.191
		c1.012,2.327-2.909,4.355-4.408,5.194c-6.369,3.563-13.826,5.438-20.881,7.093c-17.616,4.132-37.119,4.988-55.099,3.975
		c-10.524-0.593-21.803-2.214-30.876-7.935c-4.197-2.646-10.205-8.546-3.711-12.022c5.955-3.188,13.716-3.576,20.302-4.127
		c6.922-0.579,13.881-0.715,20.825-0.731c9.131-0.022,18.246,0.127,27.329,1.158c10.333,1.172,24.685,3.302,30.594,13.057
		C129.008,103.877,132.669,102.359,131.58,100.56L131.58,100.56z"/>
</g>
<g>
	<path d="M84.784,281.824c-15.182-1.165-30.23-3.962-45.508-3.375c-7.049,0.271-18.544,0.867-23.923,6.26
		c-6.535,6.551,8.213,12.028,12.189,13.804c10.939,4.883,23.913,3.566,35.509,2.769c31.763-2.185,63.615,0.559,95.375,1.41
		c12.454,0.334,25.091,0.729,37.535-0.064c9.887-0.631,20.628-2.657,27.815-10.041c6.932-7.121-6.953-10.191-11.448-11.092
		c-15.392-3.084-31.137-4.688-46.782-5.719c-36.677-2.415-73.469-0.521-110.182-0.489c-1.684,0.001-4.018,2.56-1.404,2.558
		c31.653-0.027,63.306-1.324,94.955-0.257c15.827,0.534,31.63,1.781,47.307,4.042c3.592,0.519,28.053,2.666,25.139,8.969
		c-2.366,5.121-10.634,7.236-15.566,8.301c-6.645,1.434-13.647,1.499-20.413,1.516c-14.303,0.035-28.601-0.301-42.891-0.875
		c-16.21-0.65-32.412-1.453-48.638-1.584c-13.919-0.111-27.703,0.928-41.593,1.406c-10.03,0.346-18.656-1.395-27.692-5.738
		c-2.519-1.211-6.213-3.01-6.998-5.949c-0.729-2.732,5.392-4.166,6.992-4.62c18.991-5.388,39.639-0.144,58.817,1.327
		C85.101,284.514,87.404,282.025,84.784,281.824L84.784,281.824z"/>
</g>
<g>
	<path d="M136.438,217.528c-9.478-6.58-23.669-7.739-34.732-9.117c-16.953-2.112-34.358-2.563-51.344-0.575
		c-11.392,1.333-26.263,3.669-34.325,12.784c-8.035,9.084,1.514,15.12,9.717,18.167c15.202,5.646,32.303,7.088,48.354,8.215
		c14.024,0.984,28.715,1.754,42.678-0.396c6.058-0.933,27.619-7.308,17.595-16.389c-4.738-4.292-11.729-6.478-17.656-8.498
		c-7.797-2.658-15.823-4.669-23.862-6.44c-3.745-0.825-7.509-1.568-11.291-2.203c-0.92-0.155-4.253,1.33-3.171,1.512
		c14.964,2.513,30.46,5.986,44.353,12.202c3.432,1.536,11.403,4.925,10.498,9.872c-1.072,5.858-12.749,8.147-17.5,8.731
		c-15.356,1.886-31.372,0.783-46.718-0.596c-15.085-1.355-32.728-2.799-46.251-10.292c-2.82-1.563-5.797-3.868-6.13-7.303
		c-0.404-4.165,3.698-8.148,6.758-10.261c10.092-6.965,24.577-7.821,36.397-8.461c14.62-0.791,29.422,0.061,43.908,2.133
		c9.363,1.34,21.089,2.688,29.084,8.238C133.701,219.479,137.009,217.926,136.438,217.528L136.438,217.528z"/>
</g>
<g>
	<path d="M116.754,164.721c-7.518-2.141-14.73,4.912-16.985,11.451c-0.105,0.305,0.145,0.559,0.39,0.676
		c4.014,1.934,8.655,2.811,12.971,3.767c7.46,1.653,15.02,2.872,22.591,3.886c15.292,2.048,31.534,3.737,46.858,1.121
		c7.22-1.232,20.106-6.158,13.753-15.676c-2.828-4.236-9.084-5.643-13.72-6.508c-7.574-1.413-15.444-1.349-23.111-1.072
		c-17.493,0.628-34.7,3.536-51.983,6.039c-1.837,0.266-3.216,2.484-0.539,2.098c13.299-1.926,26.524-4.107,39.925-5.275
		c8.626-0.753,17.32-1.133,25.971-0.59c6.105,0.383,13.613,1.123,18.471,5.262c3.473,2.959,3.69,8.228-0.185,10.866
		c-5.015,3.416-12.55,3.546-18.366,3.784c-16.654,0.681-33.576-1.523-49.925-4.521c-4.718-0.865-9.422-1.856-14.054-3.109
		c-1.47-0.396-2.925-0.842-4.348-1.383c-2.657-1.012,5.979-9.867,9.914-8.746C115.58,167.131,118.924,165.338,116.754,164.721
		L116.754,164.721z"/>
</g>
<g>
	<path d="M166.795,224.536c-6.677,8.479,4.48,13.38,11.654,14.425c5.923,0.863,18.978-1.067,19.89-8.828
		c0.819-6.968-10.907-9.748-15.651-10.41c-10.713-1.496-21.457,2.682-28.968,10.262c-1.675,1.69,2.089,2.064,3.186,0.957
		c5.754-5.807,13.112-8.948,21.305-8.863c5.212,0.055,11.624,1.51,15.155,5.656c4.61,5.411-5.883,8.436-9.412,8.779
		c-5.303,0.516-20.145-3.182-13.973-11.02C171.47,223.602,167.779,223.287,166.795,224.536L166.795,224.536z"/>
</g>
<g>
	<path d="M69.712,155.268c-6.904-9.726-25.248-9.068-35.582-8.414c-7.955,0.503-27.385,2.212-29.097,12.788
		c-0.837,5.171,4.989,9.114,8.895,10.984c7.858,3.762,17.04,4.983,25.616,5.823c9.538,0.935,19.317,0.961,28.825-0.297
		c6.179-0.817,13.415-2.464,18.136-6.8c6.816-6.261-8.521-11.34-12.205-12.53c-10.012-3.236-21.255-5.625-31.818-5.725
		c-1.708-0.016-4.013,2.56-1.397,2.585c6.926,0.065,13.921,1.399,20.666,2.857c6.82,1.475,14.541,3.149,20.354,7.209
		c6.749,4.714-5.839,8.312-9.205,9.097c-9.505,2.215-19.803,1.917-29.463,1.229c-9.377-0.667-19.57-1.946-28.033-6.313
		c-4.303-2.22-9.018-7.415-4.611-11.795c4.375-4.349,12.57-5.358,18.339-6.098c7.673-0.983,15.549-0.885,23.178,0.405
		c4.858,0.822,10.838,2.389,13.847,6.628C67.077,158.197,70.789,156.783,69.712,155.268L69.712,155.268z"/>
</g>
<g>
	<path d="M134.499,335.102c-0.288-0.932-1.89,0.811-2.581,1.313c-1.305,0.946-2.559,1.941-3.744,3.031
		c-1.619,1.49,1.48,1.875,2.411,1.478c4.641-1.985,9.278-3.85,14.163-5.153c-0.636-0.553-1.271-1.105-1.908-1.658
		c-2.253,2.113-2.78,4.988-4.666,7.334c-0.679,0.846-0.188,1.713,0.89,1.757c8.41,0.339,15.707-3.634,22.854-7.612
		c-0.689-0.59-1.379-1.179-2.068-1.768c-3.115,2.072-4.538,4.502-5.912,7.943c-0.425,1.064,0.695,1.564,1.621,1.433
		c7.024-0.999,13.619-3.858,19.456-7.853c2.015-1.378-0.681-2.414-2.069-1.768c-3.271,1.525-5.294,3.668-7.438,6.533
		c-0.867,1.16,0.221,1.821,1.384,1.754c6.678-0.391,12.211-4.035,18.36-6.275c2.221-0.811,0.659-2.579-1.138-2.191
		c-5.612,1.212-9.739,5.037-10.963,10.703c-0.261,1.206,1.616,1.123,2.265,1.002c9.336-1.756,18.058-5.98,26.502-10.181
		c2.066-1.027,0.739-2.636-1.137-2.19c-4.454,1.057-7.586,3.537-9.511,7.7c-0.62,1.341,1.267,1.583,2.146,1.337
		c7.326-2.049,14.523-4.532,22-6c-0.212-0.791-0.423-1.58-0.635-2.371c-4.15,0.852-6.624,2.799-9.273,6.047
		c-1.164,1.427,0.809,1.891,1.908,1.658c4.444-0.943,8.451-2.832,12.502-4.848c2.383-1.186,0.231-2.916-1.639-2.011
		c-3.675,1.777-5.471,4.472-7.009,8.188c-0.579,1.399,1.233,1.511,2.146,1.337c4.796-0.916,8.876-3.301,13.17-5.514
		c-0.804-0.492-1.607-0.984-2.411-1.478c-2.272,2.022-3.375,4.413-4.904,6.987c-0.632,1.064,0.859,1.504,1.621,1.433
		c1.3-0.121,10.305-3.227,10.275-3.431c0.231,1.605,4.108,0.662,3.863-1.035c-0.792-5.487-11.42,1.689-13.725,1.904
		c0.541,0.478,1.081,0.955,1.621,1.432c1.366-2.299,2.384-4.525,4.43-6.346c1.587-1.413-1.438-1.979-2.411-1.478
		c-3.978,2.05-7.709,4.303-12.164,5.153c0.715,0.445,1.431,0.891,2.146,1.337c1.12-2.705,2.168-5.114,4.991-6.479
		c-0.546-0.67-1.093-1.34-1.639-2.011c-3.737,1.86-7.385,3.614-11.498,4.487c0.636,0.553,1.271,1.104,1.908,1.657
		c1.955-2.397,3.564-3.972,6.727-4.62c2.42-0.496,1.727-2.834-0.635-2.371c-7.477,1.469-14.674,3.951-22,6
		c0.715,0.445,1.431,0.891,2.146,1.337c1.372-2.968,3.219-4.856,6.489-5.632c-0.379-0.73-0.758-1.461-1.137-2.191
		c-8.143,4.049-16.498,8.129-25.498,9.82c0.755,0.334,1.51,0.668,2.265,1.001c0.89-4.122,3.457-7.048,7.703-7.964
		c-0.379-0.73-0.758-1.461-1.138-2.191c-5.412,1.973-10.437,5.383-16.306,5.725c0.461,0.585,0.923,1.169,1.384,1.754
		c1.712-2.29,3.22-4.221,5.896-5.467c-0.69-0.59-1.38-1.179-2.069-1.768c-4.951,3.387-10.569,5.965-16.544,6.814
		c0.541,0.478,1.081,0.955,1.621,1.432c1.124-2.814,2.108-4.963,4.754-6.723c1.979-1.316-0.666-2.548-2.068-1.768
		c-6.105,3.399-12.579,7.346-19.813,7.055c0.296,0.586,0.593,1.172,0.89,1.757c1.863-2.318,2.462-5.267,4.666-7.333
		c1.376-1.291-0.952-1.913-1.908-1.658c-5.23,1.396-10.198,3.388-15.169,5.514c0.804,0.492,1.607,0.984,2.411,1.478
		c2.089-1.921,4.668-3.265,6.695-5.238c0.243-0.237,0.449-0.641,0.341-0.989c-0.01-0.032-0.02-0.064-0.029-0.096
		C137.863,332.447,134.007,333.512,134.499,335.102L134.499,335.102z"/>
</g>
<g>
	<path d="M430.088,335.507c7.408-2.188,16.501-1.382,23.868,0.664c0.438-0.868,0.878-1.736,1.316-2.604
		c-7.135,0.705-14.198,1.961-21.333,2.666c-1.566,0.155-3.32,2.508-0.873,2.697c7.664,0.595,15.396,0.695,22.89,2.574
		c0.264-0.837,0.527-1.674,0.791-2.512c-8.613,1.807-17.401,1.28-26.141,1.24c-0.126,0.9-0.251,1.801-0.377,2.701
		c8.659-0.039,17.3-0.467,25.727,1.904c0.438-0.868,0.878-1.736,1.316-2.605c-5.99,0.602-11.984,0.665-18,0.667
		c-2.16,0.001-3.005,2.701-0.377,2.7c6.015-0.002,12.01-0.065,18-0.666c1.124-0.113,3.429-2.012,1.316-2.605
		c-9.053-2.548-18.3-2.137-27.605-2.096c-2.162,0.01-3.002,2.688-0.377,2.701c9.131,0.041,18.193,0.461,27.191-1.427
		c1.075-0.226,2.574-2.065,0.791-2.513c-7.803-1.957-15.794-2.139-23.776-2.758c-0.291,0.898-0.582,1.798-0.873,2.697
		c7.135-0.705,14.198-1.963,21.333-2.668c1.123-0.111,3.43-2.018,1.316-2.604c-8.308-2.308-18.432-3.14-26.798-0.669
		C427.067,333.686,427.723,336.205,430.088,335.507L430.088,335.507z"/>
</g>
<g>
	<path d="M26.646,335.805c24.939-0.066,49.999-2.633,74.84,0.667c0.462-0.877,0.923-1.754,1.385-2.631
		c-26.872-0.726-54.905-1.165-81.02,6.095c-1.34,0.373-2.523,2.492-0.365,2.536c28.249,0.581,56.418-2.583,84.666-2
		c0.122-0.846,0.243-1.69,0.365-2.536c-23.357,4.525-47.433-1.164-70.666,4.666c-2.383,0.598-1.716,3.037,0.654,2.441
		c23.164-5.813,47.313-0.141,70.666-4.666c1.451-0.281,2.441-2.493,0.365-2.536c-28.249-0.582-56.418,2.582-84.666,2
		c-0.122,0.846-0.243,1.69-0.365,2.536c25.43-7.07,52.815-6.612,78.98-5.905c1.677,0.046,4.08-2.272,1.385-2.631
		c-25.164-3.342-50.565-0.733-75.828-0.667C24.91,333.18,24.015,335.811,26.646,335.805L26.646,335.805z"/>
</g>
<g>
	<path d="M280.329,332.398c1.133-1.766,2.2-3.568,3.333-5.334c0.384-0.598-3.154,0.102-3.646,0.52
		c-4.983,4.24-10.281,8.361-13.492,14.184c-0.323,0.586,1.38,0.354,1.532,0.321c7.815-1.687,14.318-6.09,21.693-8.941
		c-0.587-0.205-1.174-0.41-1.761-0.615c-5.172,2.467-9.111,6.239-12.799,10.569c-0.367,0.432,0.98,0.396,1.056,0.389
		c10.514-1.174,19.403-7.156,28.617-11.855c1.868-0.953-0.28-1.063-1.252-0.773c-6.662,1.986-12.216,6.053-16.421,11.573
		c-0.26,0.341,0.521,0.41,0.642,0.407c11.862-0.336,23.132-5.917,33.399-11.398c1.321-0.706-0.59-0.791-1.102-0.699
		c-6.558,1.17-12.345,4.544-16.78,9.506c-0.398,0.445,0.036,0.575,0.482,0.592c10.499,0.374,20.036-5.974,29.032-10.541
		c1.514-0.769,0.363-1.059-0.734-0.891c-7.719,1.186-13.711,5.759-18.78,11.507c-0.38,0.431,0.019,0.604,0.482,0.591
		c9.682-0.266,19.887-3.848,27.67-9.592c0.879-0.647-1.18-0.539-1.373-0.506c-6.234,1.098-11.258,4.094-15.446,8.84
		c-0.545,0.617,0.482,0.625,0.896,0.573c7.67-0.946,14.891-3.445,21.95-6.522c2.352-1.025-1.357-0.779-2.207-0.436
		c-5.57,2.25-10.436,5.58-15.307,9.052c-0.775,0.554,2.756,0.187,3.486-0.334c4.465-3.183,8.918-6.218,14.027-8.282
		c-0.734-0.145-1.471-0.291-2.207-0.436c-5.801,2.529-11.734,4.698-18.049,5.478c0.299,0.19,0.598,0.382,0.896,0.573
		c3.051-3.459,6.414-6.314,11.219-7.16c-0.457-0.169-0.914-0.338-1.373-0.506c-4.531,3.344-9.805,5.438-15.221,6.854
		c-1.455,0.357-2.928,0.617-4.417,0.777c-1.826,0.221,1.513-2.553,1.53-2.57c3.138-3.14,6.967-5.861,11.481-6.555
		c-0.244-0.297-0.488-0.594-0.732-0.891c-4.203,2.135-8.331,4.41-12.597,6.416c-1.299,0.604-2.62,1.154-3.962,1.655
		c-0.627,0.241-6.774,1.434-6.289,0.892c2.909-3.256,7.285-5.973,11.581-6.739c-0.367-0.233-0.734-0.466-1.102-0.698
		c-5.573,2.976-11.26,5.687-17.226,7.785c-1.28,0.438-2.576,0.826-3.887,1.162c0.038-0.01-6.08,1.262-5.294,0.229
		c2.896-3.803,7.448-7.23,12.026-8.596c-0.417-0.257-0.835-0.515-1.252-0.771c-7.833,3.994-15.79,9.814-24.717,10.811
		c0.352,0.129,0.704,0.259,1.056,0.389c3.217-3.778,6.661-7.266,11.201-9.431c2.161-1.03-0.888-0.952-1.761-0.615
		c-6.6,2.552-12.675,6.889-19.639,8.392c0.511,0.107,1.021,0.214,1.532,0.32c3.132-5.679,8.315-9.68,13.174-13.814
		c-1.215,0.172-2.431,0.346-3.646,0.518c-1.133,1.766-2.2,3.568-3.333,5.334C276.286,333.473,279.73,333.33,280.329,332.398
		L280.329,332.398z"/>
</g>
<g>
	<path d="M371.376,332.089c8.729-0.86,20.347,0.824,28.034,5.104c0.738-0.771,1.476-1.541,2.214-2.312
		c-11.337,0.036-22.663,0.631-34,0.667c-1.088,0.003-4.205,1.912-1.849,2.467c10.893,2.568,22.113,2.801,33.107,4.745
		c0.47-0.849,0.938-1.697,1.408-2.546c-6.841,0.004-13.62,0.084-20.352,1.435c-1.532,0.308-2.373,2.159-0.39,2.444
		c8.413,1.211,16.849,1.332,25.333,1.334c1.677,0,4.021-2.545,1.408-2.546c-8.484-0.003-16.92-0.123-25.333-1.333
		c-0.13,0.814-0.26,1.629-0.39,2.444c6.039-1.212,12.179-1.229,18.314-1.232c1.602-0.001,4.111-2.067,1.408-2.546
		c-10.698-1.893-21.63-2.09-32.227-4.588c-0.616,0.822-1.232,1.645-1.849,2.467c11.337-0.035,22.663-0.631,34-0.666
		c0.785-0.002,4.041-1.295,2.214-2.312c-8.459-4.71-21.053-6.506-30.632-5.563C369.751,329.756,368.723,332.35,371.376,332.089
		L371.376,332.089z"/>
</g>
<g>
	<path d="M503.248,340.426c9.89-4.846,20.326-8.448,30.217-13.295c-0.778-0.304-1.556-0.608-2.334-0.912
		c-11.227,5.73-21.858,13.426-29.621,23.449c-0.868,1.121,1.566,0.91,2.003,0.802c17.637-4.352,32.655-15.479,48.082-24.548
		c-0.896-0.226-1.794-0.451-2.69-0.677c-8.945,6.346-18.192,12.255-26.59,19.339c-1.144,0.965,0.44,1.246,1.225,1.159
		c14.967-1.662,28.225-9.604,42.121-14.779c-0.632-0.373-1.264-0.746-1.896-1.119c-9.65,4.96-18.418,11.49-27.799,16.921
		c-1.123,0.65-0.813,1.368,0.384,1.435c16.612,0.913,31.126-9.588,46.232-14.818c-0.485-0.442-0.972-0.884-1.457-1.326
		c-10.11,3.862-19.723,8.728-28.595,14.945c-0.952,0.667-0.024,1.216,0.74,1.199c17.629-0.387,32.907-10.548,48.65-17.236
		c2.525-1.073,0.17-1.937-1.457-1.326c-9.6,3.604-19.299,7.264-27.386,13.738c-0.601,0.48-0.475,1.073,0.314,1.174
		c16.559,2.111,30.42-7.181,45.45-12.377c2.582-0.893,0.181-1.881-1.457-1.326c-11.389,3.859-22.275,8.916-31.012,17.363
		c-0.5,0.483-0.559,1.107,0.314,1.174c12.364,0.941,23.438-5.441,33.801-11.374c2.121-1.215-0.813-1.562-1.896-1.119
		c-6.913,2.824-13.768,6.368-17.973,12.777c-0.337,0.513,0.012,0.867,0.571,0.925c9.524,0.98,18.146-2.397,26.549-6.54
		c-0.982-0.143-1.965-0.285-2.947-0.428c-2.015,2.014-4.028,4.028-6.043,6.043c-1.039,1.039,2.781,0.723,3.561-0.057
		c2.015-2.014,4.028-4.028,6.043-6.043c1.198-1.197-2.55-0.623-2.947-0.428c-6.889,3.396-13.947,6.354-21.797,5.546
		c0.19,0.309,0.381,0.617,0.571,0.925c3.763-5.734,9.678-8.865,15.869-11.395c-0.632-0.373-1.264-0.746-1.896-1.119
		c-8.797,5.036-18.503,11.183-29.049,10.38c0.104,0.392,0.209,0.783,0.314,1.174c8.324-8.049,18.569-12.802,29.422-16.479
		c-0.486-0.442-0.971-0.884-1.457-1.326c-13.609,4.705-26.579,13.709-41.575,11.797c0.104,0.392,0.21,0.783,0.314,1.174
		c7.612-6.094,16.764-9.463,25.796-12.854c-0.486-0.442-0.971-0.884-1.457-1.326c-14.674,6.234-29.219,16.246-45.627,16.605
		c0.246,0.4,0.493,0.8,0.74,1.199c8.374-5.868,17.463-10.416,27.005-14.061c2.57-0.982,0.165-1.888-1.457-1.326
		c-14.027,4.857-27.835,15.033-43.209,14.188c0.128,0.479,0.256,0.956,0.384,1.435c9.381-5.432,18.149-11.962,27.799-16.921
		c2.188-1.125-0.837-1.514-1.896-1.119c-13.189,4.913-25.873,12.652-40.066,14.229c0.408,0.387,0.816,0.773,1.225,1.159
		c8.397-7.083,17.645-12.992,26.59-19.339c1.708-1.212-1.938-1.119-2.69-0.677c-14.798,8.701-29.281,19.626-46.193,23.8
		c0.668,0.268,1.335,0.535,2.003,0.802c7.457-9.627,17.611-16.977,28.395-22.48c2.324-1.187-1.224-1.456-2.334-0.912
		c-9.89,4.847-20.325,8.449-30.217,13.295C498.591,340.652,502.119,340.979,503.248,340.426L503.248,340.426z"/>
</g>
<g>
	<path d="M261.322,85.117c38.663-0.157,78.287-10.772,116.566-1.533c0.495-0.658,0.99-1.315,1.485-1.973
		c-10.413,1.586-20.422,4.699-30.521,7.605c-2.282,0.657-1.827,2.42,0.471,1.759c9.755-2.808,19.417-5.861,29.478-7.394
		c0.783-0.119,3.503-1.486,1.485-1.973c-38.58-9.312-78.477,1.31-117.422,1.467C261.522,83.081,258.717,85.127,261.322,85.117
		L261.322,85.117z"/>
</g>
<g>
	<g>
		<path d="M198.827,139.827c71.675-1.621,142.745-13.391,214.489-13.5c0.742-0.001,4.377-1.47,2.535-1.467
			c-71.746,0.108-142.815,11.878-214.489,13.5C200.624,138.376,196.997,139.868,198.827,139.827L198.827,139.827z"/>
	</g>
	<g>
		<path d="M216.742,142.094c-3.06,0.227-5.942,1.273-9,1.5c-2.26,0.167-2.914,2.906-0.297,2.997
			c33.272,1.153,66.28-3.881,99.445-5.549c24.027-1.208,47.596,2.398,71.547,2.549c2.27,0.014,2.91-2.98,0.297-2.997
			c-23.289-0.146-46.236-3.607-69.596-2.639c-33.845,1.403-67.45,6.815-101.396,5.639c-0.099,0.999-0.198,1.998-0.297,2.997
			c3.06-0.227,5.942-1.273,9-1.5C218.68,144.926,219.369,141.9,216.742,142.094L216.742,142.094z"/>
	</g>
</g>
<g>
	<path d="M204.782,41.283c7.011,5.018,16.435,3.123,24.309,1.671c10.983-2.024,21.396-3.412,32.521-1.837
		c4.766,0.675,9.848,1.956,14.668,1.844c5.412-0.125,10.608-1.188,15.838-2.528c5.61-1.438,15.552-5.805,20.856-2.391
		c3.201,2.061,5.374,5.652,8.998,7.112c7.678,3.093,15.881-2.815,22.255-6.367c5.711-3.182,12.754-1.213,18.902-0.291
		c5.827,0.875,11.744,1.901,17.659,1.77c22.669-0.505,46.13,0.402,67.989-6.634c2.615-0.842,0.155-1.564-1.387-1.068
		c-11.43,3.679-23.508,4.746-35.441,5.302c-11.226,0.523-23.024,1.225-34.22,0.475c-9.525-0.638-20.627-4.95-30.064-2.636
		c-3.745,0.918-7.119,3.194-10.399,5.116c-3.262,1.911-7.193,4.13-11.159,3.134c-2.023-0.508-3.827-2.301-5.333-3.645
		c-1.992-1.778-4.295-4.658-7.154-4.98c-3.979-0.45-8.33,0.388-12.203,1.262c-5.779,1.304-11.434,3.102-17.275,4.127
		c-5.871,1.031-11.791-0.094-17.612-0.958c-8.269-1.226-16.121-1.574-24.44-0.526c-10.194,1.284-24.455,7.282-33.679,0.679
		C207.472,39.243,204.078,40.778,204.782,41.283L204.782,41.283z"/>
</g>
<g>
	<g>
		<path d="M269.858,223.079c69.171-20.021,141.589,7.937,211.49-6c0.467-0.094,1.668-0.596,1.668-1.227
			c0-6.955-15.273-8.829-20.254-9.829c-1.256-0.252-4.566,1.688-2.357,2.133c4.055,0.813,18.744,2.703,18.744,8.169
			c0.557-0.409,1.111-0.818,1.668-1.227c-69.914,13.939-142.145-14.07-211.49,6C267.026,221.765,267.54,223.749,269.858,223.079
			L269.858,223.079z"/>
	</g>
	<g>
		<path d="M262.525,178.073c0-0.028,0-0.056,0-0.083c0-1.167-3.863-0.443-3.863,1.035c0,7.027,0,14.055,0,21.082
			c0,1.167,3.863,0.443,3.863-1.035c0-7.027,0-14.055,0-21.082c0-1.167-3.863-0.443-3.863,1.035c0,0.028,0,0.056,0,0.083
			C258.662,180.275,262.525,179.552,262.525,178.073L262.525,178.073z"/>
	</g>
	<g>
		<path d="M254.557,214.028c0.963,0.486,1.845,0.855,2.432,1.646c-0.15-0.203-0.049-0.094-0.015-0.006c0.038,0.1,0,0.24,0.023-0.063
			c-0.016,0.2,0.168-0.267,0.048-0.093c0.171-0.248,0.42-0.395,0.688-0.519c-0.336,0.155,0.521-0.152,0.115-0.049
			c0.59-0.15,0.136-0.03-0.003-0.011c-0.162,0.021-0.325,0.033-0.488,0.045c0.316-0.023-0.443,0.006-0.515,0.006
			c-0.876,0.005-2.021,0.283-2.549,1.059c-0.513,0.752,0.43,1.152,1.051,1.148c1.288-0.008,2.519-0.107,3.742-0.526
			c0.808-0.276,1.829-0.901,1.778-1.869c-0.025-0.503-0.526-0.938-0.892-1.226c-0.719-0.565-1.529-1.011-2.344-1.422
			s-2.009-0.087-2.737,0.358C254.359,212.835,253.736,213.614,254.557,214.028L254.557,214.028z"/>
	</g>
</g>
<g>
	<path d="M276.353,278.021c-5.5,0-10.999,0-16.499,0c-0.345,0.7-0.688,1.4-1.033,2.1c46.582-8.91,94.522-10.478,141.577-4.51
		c1.174,0.148,4.545-1.773,2.379-2.049c-47.656-6.043-96.225-4.535-143.409,4.489c-1.153,0.221-3.549,2.099-1.033,2.099
		c5.5,0,10.999,0,16.499,0C276.235,280.15,278.962,278.021,276.353,278.021L276.353,278.021z"/>
</g>
<g>
	<g>
		<path d="M437.907,281.789c15.403-4.988,31.896-5.869,47.971-6.262c17.668-0.433,35.338,0.335,53.006,0.359
			c0.464-0.867,0.929-1.734,1.393-2.601c-4,0-8,0-12,0c-1.712,0-4.006,2.601-1.393,2.601c4,0,8,0,12,0
			c1.71,0,4.008-2.597,1.393-2.601c-17.457-0.024-34.905-0.686-52.364-0.389c-16.932,0.288-34.427,1.232-50.649,6.485
			C434.958,280.129,435.563,282.549,437.907,281.789L437.907,281.789z"/>
	</g>
	<g>
		<path d="M457.325,282.854c18.512,0.046,36.986,1.449,55.497,1.5c0.782,0.002,4.395-1.529,2.518-1.535
			c-18.511-0.05-36.985-1.453-55.497-1.5C459.061,281.316,455.448,282.848,457.325,282.854L457.325,282.854z"/>
	</g>
</g>
<path d="M569.758,149.543c-0.401-0.567-0.804-1.128-1.188-1.718c-0.048-0.075-0.094-0.148-0.144-0.24l-0.037-0.084
	c-0.011-0.03-0.023-0.139,0.038-0.224c0.061-0.08,0.131-0.107,0.159-0.104c0.078-0.015,0.203,0.044,0.234,0.084l0.111,0.116
	l0.345,0.41l0.647,0.821c0.861,1.093,1.664,2.222,2.487,3.338c0.824,1.115,1.603,2.259,2.401,3.39c0.8,1.131,1.58,2.273,2.347,3.425
	c1.556,2.289,3.072,4.602,4.553,6.94c0.739,1.17,1.502,2.326,2.213,3.517L585,171c0.361,0.613,0.702,1.171,1.077,1.881l-2.785,0.477
	c0.333-3.238,0.788-6.461,1.173-9.692c0.161-1.617,0.375-3.228,0.57-4.841l0.595-4.841l0.521-4.847l0.293-2.424
	c0.093-0.808,0.212-1.616,0.284-2.426c0.139-1.619,0.297-3.24,0.457-4.864c0.169-1.624,0.356-3.25,0.571-4.88
	c0.132,1.63,0.235,3.264,0.322,4.901c0.076,1.637,0.151,3.276,0.207,4.917c-0.002,3.274-0.104,6.55-0.207,9.828
	c-0.013,0.821-0.1,1.634-0.154,2.45l-0.186,2.448c-0.127,1.632-0.235,3.266-0.396,4.895c-0.163,1.627-0.356,3.25-0.533,4.875
	c-0.17,1.625-0.384,3.246-0.589,4.867c-0.103,0.809-0.841,1.382-1.65,1.28c-0.501-0.063-0.912-0.372-1.128-0.789l-0.007-0.014
	c-0.262-0.516-0.625-1.146-0.957-1.728l-1.034-1.78c-0.705-1.181-1.372-2.389-2.065-3.581c-1.388-2.384-2.76-4.78-4.106-7.191
	c-0.685-1.199-1.359-2.404-2.02-3.618c-0.661-1.214-1.349-2.412-1.996-3.634l-1.974-3.646l-0.499-0.904l-0.255-0.434l-0.055-0.084
	c0.015,0.027,0.121,0.075,0.182,0.048c0.015-0.011,0.095-0.009,0.152-0.084c0.062-0.074,0.048-0.172,0.038-0.191l0.01,0.037
	c0.02,0.066,0.05,0.149,0.08,0.227C569.19,148.273,569.477,148.91,569.758,149.543z"/>
<path d="M495.858,79.863c-1.888,5.505-3.148,11.146-4.234,16.84c-0.835-1.591-1.708-3.16-2.624-4.703
	c2.146-7.531,3.191-15.463,4.541-23.154c0.113-0.645-3.118-0.709-3.292,0.282c-1.115,6.355-2.028,12.866-3.528,19.176
	c-0.504-0.791-1.013-1.579-1.529-2.363c0.403-0.367,0.561-0.896,0.148-1.482c-1.541-2.197-3.152-4.247-5.229-5.967
	c-1.099-0.91-3.895-0.189-2.738,1.47c2.866,4.113,5.685,8.245,8.248,12.527c-1.284,4.411-2.971,8.674-5.33,12.669
	c-2.516-7.05-3.651-14.361-4.433-21.845c-0.09-0.867-3.38-0.56-3.292,0.282c0.896,8.576,2.253,16.926,5.626,24.916
	c0.373,0.884,2.772,0.543,3.247-0.119c2.746-3.834,4.729-7.982,6.254-12.304c1.102,2.009,2.141,4.056,3.085,6.16
	c0.502,1.116,2.944,1.021,3.176-0.271c1.313-7.353,2.707-14.658,5.135-21.738C499.649,78.603,496.363,78.389,495.858,79.863z"/>
<path d="M629.102,36.251c0.299-1.637,0.558-3.292,0.793-4.967c-0.586,1.572-1.148,3.166-1.672,4.777
	c-0.444,1.625-0.827,3.269-1.239,4.912c-0.31,1.655-0.63,3.31-0.922,4.971c-0.089,0.604-0.181,1.208-0.271,1.812
	c-0.453-0.819-0.905-1.636-1.366-2.45c-0.632-0.938-1.269-1.87-1.901-2.806l0.388-2.141c0.118-0.778,0.246-1.555,0.347-2.335
	l0.271-2.341l0.228-2.34l0.167-2.341c0.208-3.121,0.323-6.236,0.403-9.364c-0.328,1.531-0.622,3.067-0.892,4.605
	c-0.259,1.54-0.532,3.076-0.772,4.613l-0.779,4.594l-0.428,2.282L621,40l-0.046,0.205c-1.112-1.426-2.205-2.864-3.34-4.269
	c-0.511-0.793-1.045-1.574-1.64-2.318c-0.192-0.234-0.378-0.475-0.589-0.697c-0.207-0.224-0.403-0.458-0.623-0.675
	c-0.222-0.214-0.438-0.435-0.667-0.646l-0.729-0.598c-0.195-0.16-0.479-0.18-0.696-0.031c-0.264,0.181-0.332,0.542-0.151,0.806
	l0.057,0.083c1.116,1.633,2.251,3.25,3.406,4.85c1.091,1.639,2.248,3.226,3.363,4.841c0.313,0.493,0.632,0.98,0.949,1.469
	l-0.377,1.458l-0.631,2.205l-0.725,2.167l-0.826,2.124l-0.915,2.08l-1.038,2.016l-0.192,0.32l-0.397-0.803l-1.117-2.6l-1.018-2.65
	l-0.893-2.705l-0.812-2.743l-0.747-2.773l-1.417-5.597c0.132,1.926,0.31,3.844,0.563,5.763c0.137,0.957,0.274,1.916,0.434,2.871
	l0.558,2.858c0.221,0.947,0.472,1.887,0.71,2.833l0.86,2.801l1.046,2.744l1.197,2.687c0.081,0.182,0.216,0.342,0.396,0.456
	c0.484,0.301,1.12,0.154,1.422-0.33l0.012-0.02l1.275-2.045l1.131-2.124l0.997-2.185l0.845-2.242l0.727-2.275l0.506-1.867
	c0.223,0.343,0.448,0.685,0.67,1.029c0.949,1.698,1.93,3.378,2.896,5.068l0.04,0.069c0.164,0.285,0.459,0.489,0.811,0.525
	c0.585,0.06,1.107-0.364,1.167-0.949l1.029-9.967C628.688,39.566,628.921,37.917,629.102,36.251z"/>
<path d="M537.313,157.054c-3.439,2.544-6.412,5.558-9.273,8.687c0.076-4.392,0.43-8.762,1.425-13.057
	c0.104-0.46-1.346-0.224-1.447,0.212c-1.063,4.588-1.395,9.26-1.443,13.954c-0.625-0.172-1.255-0.326-1.891-0.456
	c-1.517-1.887-2.965-3.826-4.248-5.895c-0.267-0.43-1.638,0.096-1.455,0.39c1.119,1.803,2.366,3.505,3.668,5.163
	c-3.399-0.466-6.927-0.416-10.53-0.005c-0.371,0.042-1.583,0.694-0.629,0.585c4.096-0.467,8.069-0.442,11.854,0.309
	c0.568,0.707,1.146,1.406,1.727,2.102c-2.969,3.332-5.946,6.657-9.34,9.569c-0.655,0.562,0.788,0.637,1.182,0.298
	c3.209-2.755,6.04-5.891,8.85-9.049c0.276,0.329,0.554,0.659,0.831,0.988c0.072,4.219,0.274,8.442,0.293,12.624
	c0.001,0.368,1.456,0.116,1.455-0.39c-0.017-3.467-0.159-6.962-0.249-10.458c1.146,1.361,2.276,2.733,3.358,4.146
	c0.258,0.338,1.658-0.146,1.358-0.536c-1.521-1.987-3.144-3.894-4.761-5.801c-0.014-0.713-0.021-1.426-0.024-2.139
	c2.372,0.929,4.647,2.216,6.809,3.939c0.313,0.249,1.587-0.323,1.37-0.496c-2.564-2.044-5.299-3.48-8.157-4.439
	c3.145-3.506,6.378-6.919,10.191-9.74C539.028,156.972,537.805,156.691,537.313,157.054z M525.565,167.473
	c0.238,0.068,0.477,0.14,0.713,0.214c-0.094,0.104-0.187,0.208-0.278,0.313C525.854,167.825,525.711,167.648,525.565,167.473z"/>
<path d="M495.033,28.982c-3.303,2.443-6.224,5.27-9.013,8.23c0.143-4.358,0.561-8.692,1.549-12.961
	c0.239-1.03-3.012-0.502-3.238,0.477c-1.128,4.876-1.526,9.836-1.611,14.824c-0.187-0.042-0.371-0.092-0.558-0.131
	c-1.677-2.086-3.278-4.23-4.698-6.517c-0.596-0.961-3.664,0.215-3.256,0.873c1.079,1.74,2.262,3.396,3.498,5.012
	c-3.262-0.275-6.612-0.169-10.016,0.219c-0.832,0.095-3.546,1.554-1.411,1.31c4.456-0.508,8.766-0.479,12.874,0.321
	c0.587,0.73,1.183,1.453,1.782,2.172c-3.245,3.632-6.512,7.247-10.217,10.426c-1.466,1.258,1.765,1.427,2.647,0.668
	c3.294-2.827,6.229-6.018,9.115-9.258c0.083,0.099,0.166,0.197,0.25,0.296c0.081,4.72,0.305,9.443,0.326,14.121
	c0.004,0.824,3.262,0.26,3.257-0.873c-0.014-3.056-0.116-6.13-0.207-9.209c0.716,0.877,1.426,1.76,2.114,2.66
	c0.579,0.757,3.714-0.326,3.044-1.201c-1.686-2.202-3.483-4.315-5.279-6.429c-0.007-0.401-0.012-0.801-0.016-1.202
	c2.083,0.959,4.098,2.186,6.032,3.728c0.698,0.557,3.554-0.723,3.068-1.11c-2.804-2.235-5.796-3.82-8.923-4.902
	c3.377-3.753,6.863-7.393,10.95-10.415C498.877,28.795,496.135,28.167,495.033,28.982z"/>
<g>
	<path d="M488.76,148.038c0.003-0.058,0.006-0.117,0.009-0.174c0.022-0.444-0.62-0.687-1.181-0.679
		c-1.03-0.64-2.252-1.167-3.688-1.554c-0.411-0.111-1.398-0.108-1.296,0.542c0.474,2.971,2.12,5.139,3.428,7.762
		c0.292,0.586,1.745,0.813,1.969,0.065c0.383-1.28,0.541-2.632,0.64-3.983c3.617,4.833,1.077,12.968-1.859,18.382
		c-0.4,0.739,1.543,1.131,1.887,0.499C492.367,162.075,494.496,152.825,488.76,148.038z M486.52,151.159
		c-0.705-1.279-1.357-2.558-1.741-4.011c0.739,0.301,1.396,0.654,1.973,1.056C486.701,149.183,486.638,150.175,486.52,151.159z"/>
	<path d="M495.791,137.511c-0.396-0.344-1.629-0.611-1.878,0.033c-1.052,2.715-2.833,5.47,1.146,6.59
		c2.32,0.654,2.419-2.394,0.901-3.395c-0.228-0.15-0.757-0.182-1.169-0.115c0.198-0.513,0.397-1.025,0.596-1.538
		c5.731,5.876,6.93,13.668,4.069,21.516c-0.192,0.526,1.744,0.886,1.988,0.215C504.595,152.172,502.805,143.606,495.791,137.511z
		 M494.48,141.425c0.019-0.048,0.037-0.096,0.056-0.144C496.474,142.616,493.649,143.569,494.48,141.425z"/>
</g>
<g>
	<path d="M572.239,212.045c0.157-0.745-0.695-1.359-1.64-1.624c-0.938-0.761-2.057-1.45-3.391-2.046
		c-0.778-0.348-2.73-0.65-2.729,0.665c0.004,3.008,1.291,5.406,2.173,8.201c0.396,1.25,3.194,2.15,3.868,0.745
		c0.124-0.258,0.22-0.53,0.326-0.796c0.329,4.788-2.809,10.481-5.636,14.172c-1.023,1.336,2.695,2.715,3.569,1.574
		C573.684,226.538,576.973,217.84,572.239,212.045z"/>
	<path d="M580.723,202.652c-0.675-0.802-3.027-1.714-3.721-0.521c-0.754,1.297-1.507,2.593-2.261,3.89
		c-0.636,1.095,2.158,3.057,2.954,3.424c1.346,0.619,2.495,0.269,3.093-0.485c1.915,5.42,1.159,11.276-1.912,16.813
		c-0.543,0.98,3.169,2.296,3.86,1.047C587.241,218.695,586.749,209.83,580.723,202.652z"/>
</g>
<g>
	<path d="M443.038,185.888c-5.31-5.818-5.6-12.565-1.963-17.308c1.817-2.016,4.405-3.6,7.673-4.487
		c0.009,0.251-0.079,0.507-0.228,0.762c-0.419,0.387-0.943,0.741-1.475,1.024c-0.467-0.261-1.039-0.458-1.188-0.246
		c-0.284,0.188-0.432,0.418-0.454,0.685c-0.081,0.008-0.147,0.032-0.185,0.084c-0.36,0.239-0.51,0.542-0.448,0.907
		c0.015,0.524,1.328,0.972,1.756,0.886c1.738-0.355,3.384-2.217,4.537-3.462c0.021-0.022,0.016-0.052,0.001-0.085
		c0.225-0.238,0.44-0.472,0.638-0.685c0.074-0.08-0.159-0.271-0.187-0.294c-3.783-3.139-8.583,0.01-11.718,3.033
		c-0.467,0.45-0.859,0.92-1.219,1.4c-4.957,5.515-2.383,13.123,2.139,18.078c0.296,0.325,1.998,0.822,1.682,0.476
		c-0.373-0.409-0.713-0.823-1.036-1.24C441.672,185.743,443.353,186.233,443.038,185.888z M449.367,163.53
		c-0.104-0.042-0.211-0.07-0.316-0.105c0.113-0.033,0.222-0.07,0.336-0.101C449.39,163.393,449.377,163.461,449.367,163.53z"/>
	<path d="M459.235,186.901c-1.227-0.804-2.207-1.683-2.983-2.614c0.7,0.688,1.513,1.347,2.456,1.965
		c0.444,0.292,2.235,0.58,1.166-0.121c-7.787-5.104-5.976-13.162-1.148-19.208c0.474-0.546,0.97-1.072,1.485-1.576
		c0.59,0.492,0.872,0.96,0.614,2.068c-0.131,0.56,1.726,1.229,1.816,0.835c0.053-0.227,0.106-0.455,0.159-0.682
		c0.251,0.046,0.452,0.033,0.479-0.087c0.111-0.477,0.222-0.953,0.333-1.429c0.048-0.203-0.168-0.418-0.464-0.594
		c-0.67-0.556-1.339-1.111-2.008-1.667c-0.247-0.205-1.238-0.883-1.583-0.56c-0.928,0.871-1.785,1.798-2.559,2.767
		c-5.73,6.615-7.469,15.426,1.069,21.021C458.514,187.313,460.305,187.602,459.235,186.901z M461.453,165.351
		c-0.252-0.208-0.503-0.417-0.755-0.626c0.05-0.049,0.102-0.098,0.151-0.146C461.133,164.814,461.338,165.053,461.453,165.351z"/>
</g>
<g>
	<path d="M523.797,255.078c-8.054-4.794-9.572-12.919-5.012-19.042c0.715,0.723,2.991,0.766,3.677,0.395
		c1.579-0.853,2.633-3.152,3.385-4.694c0.095-0.195-0.462-0.426-0.528-0.454c-5.338-2.247-9.425,1.551-12.052,6.257
		c-3.933,7.044,1.011,14.02,7.034,17.603C521.058,255.592,524.603,255.558,523.797,255.078z"/>
	<path d="M539.646,250.216c-9.185-2.7-9.026-11.8-5.656-19.001c0.113,1.134,4.01,1.33,3.958,0.528
		c-0.032-0.488-0.064-0.977-0.097-1.464c-0.027-0.423-0.579-0.716-1.262-0.879c-0.672-0.283-1.345-0.566-2.017-0.85
		c-0.592-0.248-2.881-0.971-3.354-0.152c-5.106,8.861-4.852,19.459,6.265,22.727C538.504,251.425,542.101,250.937,539.646,250.216z"
		/>
</g>
<g>
	<path d="M514.663,75.939c8.93,10.618,15.003,22.841,19.441,35.921c0.158,0.465,1.993-0.02,1.932-0.518
		c-1.553-12.493-2.947-25.005-4.5-37.498c-0.052-0.419-1.999-0.021-1.932,0.518c1.553,12.493,2.947,25.005,4.5,37.498
		c0.644-0.172,1.288-0.345,1.932-0.518c-4.459-13.139-10.594-25.418-19.557-36.075C516.157,74.884,514.335,75.549,514.663,75.939
		L514.663,75.939z"/>
</g>
<g>
	<path d="M564.438,25.182c8.174,10.457,13.557,22.367,17.353,35.024c0.271,0.903,3.823,0.099,3.739-0.859
		c-1.061-12.029-1.968-24.071-3.028-36.1c-0.072-0.807-3.831-0.177-3.739,0.86c1.061,12.029,1.969,24.071,3.028,36.1
		c1.246-0.287,2.492-0.573,3.739-0.859c-3.833-12.781-9.315-24.779-17.563-35.328C567.374,23.262,563.836,24.411,564.438,25.182
		L564.438,25.182z"/>
</g>
<g>
	<path d="M588.738,255.74c2.321-5.504,0.848-12.484-6.029-13.563c-7.558-1.187-10.848,10.257-8.952,15.665
		c0.184,0.524,1.72,0.332,1.492-0.315c-1.49-4.255-0.102-9.079,2.798-12.403c3.773-4.325,9.491-0.483,10.3,4.227
		c1.02,5.943-4.495,12.73-7.572,17.273c-2.974,4.391-7.473,9.492-8.248,14.92c-0.743,5.203,4.499,6.439,8.638,6.764
		c0.769,0.061,1.415-0.783,0.369-0.866c-2.987-0.233-7.13-0.785-7.533-4.44c-0.302-2.731,1.54-5.689,2.848-7.938
		C580.646,268.531,585.783,262.752,588.738,255.74z"/>
	<path d="M585.136,302.394c-0.128-0.397-0.726-0.511-1.069-0.567c-0.71-0.117-1.483-0.008-2.19,0.071
		c-0.268,0.03-0.776,0.144-0.755,0.512c0.019,0.347,0.54,0.455,0.806,0.425c0.523-0.059,1.153-0.131,1.621-0.099
		c0.005,0,0.049,0.007,0.089,0.012c0.002,0.008-0.003-0.001-0.032,0.095c-0.035,0.11-0.084,0.215-0.132,0.32
		c-0.109,0.244-0.217,0.487-0.276,0.75c-0.159,0.703,1.387,0.746,1.52,0.166C584.84,303.527,585.322,302.973,585.136,302.394z"/>
</g>
<path d="M629.484,105.984c-2.636-4.754-5.249-9.539-8.221-14.088c2.445-3.581,5.402-6.757,9.125-9.161
	c0.822-0.533-1.438-1.108-2.018-0.733c-3.337,2.156-6.066,4.903-8.371,7.999c-1.113-1.618-2.277-3.201-3.52-4.731
	c-3.445-4.249-9.767-10.485-15.662-6.711c-0.768,0.491,1.482,1.023,2.022,0.678c5.401-3.458,12.046,6.822,14.537,10.373
	c0.485,0.691,0.958,1.39,1.421,2.093c-3.445,5.137-5.88,11.058-8.02,16.793c-0.22,0.589,2.1,1.01,2.394,0.223
	c1.89-5.066,4.026-10.314,6.916-15.007c2.512,4.011,4.77,8.177,7.063,12.316C627.5,106.652,629.803,106.56,629.484,105.984z"/>
<path d="M633.449,301.159c-0.295-0.934-0.724-2.265-1.304-3.839c-0.286-0.789-0.604-1.641-0.967-2.531
	c-0.36-0.892-0.741-1.833-1.179-2.789c-0.346-0.764-0.705-1.551-1.09-2.337c0.228-0.271,0.452-0.545,0.674-0.813
	c0.274-0.309,0.547-0.612,0.814-0.912c0.259-0.308,0.55-0.574,0.813-0.858c0.271-0.274,0.519-0.564,0.792-0.812
	c0.544-0.492,1.03-1,1.532-1.404c0.245-0.211,0.48-0.413,0.705-0.605c0.226-0.187,0.449-0.351,0.655-0.514
	c0.416-0.318,0.775-0.617,1.102-0.823c0.635-0.437,0.988-0.702,0.988-0.702s-0.418,0.146-1.134,0.428
	c-0.362,0.129-0.784,0.333-1.268,0.587c-0.241,0.125-0.506,0.252-0.772,0.401c-0.259,0.161-0.53,0.33-0.813,0.507
	c-0.581,0.34-1.153,0.782-1.768,1.246c-0.311,0.227-0.597,0.497-0.908,0.754c-0.308,0.26-0.62,0.53-0.912,0.829
	c-0.299,0.295-0.601,0.593-0.907,0.896c-0.109,0.115-0.215,0.237-0.322,0.354c-0.368-0.707-0.744-1.416-1.138-2.12
	c-0.574-0.971-1.153-1.938-1.777-2.863c-0.605-0.936-1.286-1.805-1.952-2.638c-0.686-0.823-1.388-1.588-2.133-2.244
	c-0.355-0.342-0.752-0.632-1.115-0.923c-0.402-0.252-0.757-0.531-1.159-0.724c-0.752-0.452-1.562-0.664-2.261-0.8
	c-0.362-0.012-0.695-0.07-1.005-0.029c-0.308,0.055-0.588,0.053-0.833,0.144c-0.245,0.079-0.459,0.152-0.64,0.219
	c-0.166,0.094-0.307,0.174-0.422,0.238c-0.227,0.131-0.349,0.2-0.349,0.2s0.134-0.042,0.383-0.122
	c0.126-0.04,0.28-0.088,0.461-0.146c0.183-0.024,0.392-0.052,0.626-0.085c0.226-0.044,0.496,0.007,0.771,0.005
	c0.277,0.015,0.572,0.108,0.883,0.161c0.606,0.222,1.272,0.498,1.913,0.981c0.336,0.206,0.639,0.508,0.973,0.773
	c0.306,0.312,0.651,0.592,0.957,0.943c0.643,0.665,1.237,1.453,1.86,2.259c0.606,0.822,1.189,1.706,1.771,2.615
	c0.588,0.904,1.139,1.857,1.683,2.813c0.49,0.852,0.966,1.71,1.422,2.568c-0.108,0.133-0.216,0.266-0.323,0.398
	c-0.273,0.348-0.568,0.685-0.826,1.045c-0.261,0.36-0.521,0.72-0.779,1.078c-0.256,0.362-0.488,0.735-0.73,1.099
	c-0.244,0.361-0.471,0.729-0.684,1.101c-0.215,0.366-0.429,0.73-0.639,1.088c-0.405,0.722-0.787,1.426-1.118,2.107
	c-0.348,0.673-0.649,1.322-0.914,1.928c-0.278,0.598-0.506,1.159-0.706,1.657c-0.206,0.495-0.37,0.934-0.501,1.296
	c-0.266,0.724-0.4,1.145-0.4,1.145s0.258-0.36,0.68-1.003c0.422-0.644,1.021-1.563,1.723-2.667c0.354-0.549,0.735-1.144,1.14-1.774
	c0.395-0.634,0.85-1.276,1.278-1.965c0.454-0.672,0.919-1.37,1.409-2.062c0.481-0.7,0.986-1.396,1.501-2.085
	c0.212-0.312,0.448-0.603,0.677-0.898c0.297,0.559,0.59,1.114,0.864,1.662c0.938,1.858,1.814,3.593,2.566,5.08
	c0.745,1.494,1.386,2.736,1.843,3.602c0.459,0.865,0.737,1.353,0.737,1.353S633.741,302.093,633.449,301.159z"/>
<path d="M632.428,169.413c-2.56-6.285-6.189-12.188-10.604-17.437c2.017-3.693,4.298-7.24,6.935-10.569
	c0.452-0.57-0.809-0.808-1.171-0.35c-2.487,3.139-4.652,6.475-6.587,9.943c-4.73-5.415-10.315-10.083-16.458-13.669
	c-0.334-0.195-1.552,0.158-1.084,0.43c6.358,3.713,12.125,8.61,16.957,14.293c-4.433,8.215-7.58,17.144-10.38,26.029
	c-0.203,0.642,1.095,0.688,1.277,0.111c2.704-8.577,5.734-17.181,9.939-25.142c4.094,5.006,7.469,10.586,9.881,16.503
	C631.311,169.992,632.563,169.743,632.428,169.413z"/>
<path d="M581.976,101.764C580.617,96.647,578.648,89.842,575,85c2.864-2.221,6.045-3.971,9.604-4.478
	c0.737-0.105-0.473-0.721-0.843-0.669c-3.538,0.505-6.643,2.167-9.456,4.274c-2.112-2.509-4.744-4.363-8.077-4.961
	c-0.946-0.17-0.327,0.453,0.233,0.553c2.959,0.531,5.32,2.386,7.226,4.885c-1.486,1.165-2.895,2.44-4.24,3.723
	c-5.026,4.788-9.276,10.326-14.327,15.088c-0.308,0.291,0.951,0.804,1.261,0.513c4.358-4.111,8.159-8.774,12.317-13.085
	c1.734-1.798,3.611-3.666,5.65-5.322c3.285,4.825,5.104,11.532,6.292,16.009C580.736,101.892,582.064,102.097,581.976,101.764z"/>
<g>
	<path d="M612.113,200.254c11.505,15.419,13.277,37.438,12.994,56.047c0.655,0.122,1.311,0.246,1.966,0.367
		c-0.188-12.932,0.535-25.648,3.385-38.297c0.099-0.436-1.86-0.837-1.966-0.367c-2.851,12.648-3.571,25.364-3.385,38.297
		c0.008,0.533,1.96,0.75,1.966,0.367c0.282-18.595-1.522-40.8-13.033-56.227C613.7,199.985,611.943,200.025,612.113,200.254
		L612.113,200.254z"/>
</g>
<path d="M551.461,44.402c-4.613-1.453-9.437-2.408-14.324-3.03c-0.018-0.035-0.036-0.071-0.054-0.106
	c2.674-2.266,5.311-4.575,7.9-6.938c1.088-0.992-1.248-1.31-1.982-0.641c-1.974,1.802-3.976,3.571-6.001,5.313
	c1.175-4.193,2.179-8.449,3.556-12.605c0.306-0.927-2.111-0.617-2.4,0.259c-1.196,3.611-2.103,7.302-3.091,10.959
	c-2.298-3.818-5.008-7.427-7.596-10.911c-0.58-0.78-2.875,0.097-2.201,1.004c3.104,4.177,6.377,8.51,8.878,13.179
	c-0.014,0.048-0.028,0.096-0.044,0.144c-5.523-0.552-11.093-0.726-16.504-0.745c-0.696-0.002-2.606,1.045-1.012,1.051
	c5.466,0.02,11.104,0.209,16.685,0.809c-4.614,3.833-9.346,7.525-14.179,11.084c-1.309,0.964,0.656,1.681,1.564,1.012
	c4.159-3.063,8.242-6.225,12.242-9.489c-0.829,2.35-1.796,4.655-3.016,6.879c-0.587,1.07,1.827,0.892,2.245,0.127
	c1.416-2.581,2.502-5.266,3.423-8.006c1.269,2.84,2.208,5.807,2.609,8.942c0.125,0.981,2.523,0.407,2.39-0.64
	c-0.418-3.268-1.42-6.363-2.77-9.325c4.002,0.607,7.941,1.458,11.731,2.652C550.093,45.563,552.237,44.646,551.461,44.402z"/>
</svg>
